<!DOCTYPE svg PUBLIC "-//W3C//DTD SVG 1.1//EN" "http://www.w3.org/Graphics/SVG/1.1/DTD/svg11.dtd">
<!-- Uploaded to: SVG Repo, www.svgrepo.com, Transformed by: SVG Repo Mixer Tools -->
<svg fill="#356EC4" width="161px" height="161px" viewBox="0 0 20 20" xmlns="http://www.w3.org/2000/svg" stroke="#356EC4" stroke-width="0.0002">
<g id="SVGRepo_bgCarrier" stroke-width="0"/>
<g id="SVGRepo_tracerCarrier" stroke-linecap="round" stroke-linejoin="round"/>
<g id="SVGRepo_iconCarrier">
<path d="M12 16H9l2-4.5V9c0-1.1.9-2 2-2h2a2 2 0 0 1 2 2v2.5l2 4.5h-3v4h-4v-4zm-5-3h2V9a2 2 0 0 0-2-2H3a2 2 0 0 0-2 2v4h2v7h4v-7zM5 6a3 3 0 1 1 0-6 3 3 0 0 1 0 6zm9 0a3 3 0 1 1 0-6 3 3 0 0 1 0 6z"/>
</g>
</svg>